<mxfile host="app.diagrams.net" agent="Mozilla/5.0 (Windows NT 10.0; Win64; x64) AppleWebKit/537.36 (KHTML, like Gecko) Chrome/134.0.0.0 Safari/537.36" version="26.2.14">
  <diagram name="Page-1" id="rO6Soo6ZzE-NQta-kU9I">
    <mxGraphModel dx="786" dy="451" grid="1" gridSize="10" guides="1" tooltips="1" connect="1" arrows="1" fold="1" page="1" pageScale="1" pageWidth="850" pageHeight="1100" math="0" shadow="0">
      <root>
        <mxCell id="0" />
        <mxCell id="1" parent="0" />
        <UserObject label="Initiator" tooltip="Initiator : DOD Component, MILDEPS, DAFAs. " id="WcpoGV41TJ0xu-v99B74-1">
          <mxCell style="rounded=0;whiteSpace=wrap;html=1;" parent="1" vertex="1">
            <mxGeometry x="350" y="10" width="120" height="60" as="geometry" />
          </mxCell>
        </UserObject>
        <mxCell id="WcpoGV41TJ0xu-v99B74-2" value="URE-CT" style="rounded=0;whiteSpace=wrap;html=1;" parent="1" vertex="1">
          <mxGeometry x="350" y="120" width="120" height="60" as="geometry" />
        </mxCell>
        <UserObject label="URE-CT-ET" tooltip="Tasks OPR, *Recommends OCR" id="WcpoGV41TJ0xu-v99B74-3">
          <mxCell style="rounded=0;whiteSpace=wrap;html=1;" parent="1" vertex="1">
            <mxGeometry x="350" y="230" width="120" height="60" as="geometry" />
          </mxCell>
        </UserObject>
        <mxCell id="WcpoGV41TJ0xu-v99B74-5" value="" style="endArrow=classic;html=1;rounded=0;" parent="1" edge="1">
          <mxGeometry width="50" height="50" relative="1" as="geometry">
            <mxPoint x="409.5" y="80" as="sourcePoint" />
            <mxPoint x="409.5" y="110" as="targetPoint" />
          </mxGeometry>
        </mxCell>
        <mxCell id="WcpoGV41TJ0xu-v99B74-6" value="" style="endArrow=classic;html=1;rounded=0;" parent="1" edge="1">
          <mxGeometry width="50" height="50" relative="1" as="geometry">
            <mxPoint x="409.5" y="190" as="sourcePoint" />
            <mxPoint x="409.5" y="220" as="targetPoint" />
          </mxGeometry>
        </mxCell>
        <UserObject label="OPR" tooltip="OPR:&#xa;1. Review the CATMS Tasker Ask&#xa;2.Tasks recommended OCRs (if agreeable/applicable)&#xa;2. Prepares a responsive package for DASD(ET) signature and consolidate OCR Comments.&#xa;3. OPR uploads a completed package into the supporting documents labeled &quot;For DASD ET Review&quot;.&#xa;4. OPR completes tasker&#xa;&#xa;&#xa;" id="WcpoGV41TJ0xu-v99B74-7">
          <mxCell style="rounded=0;whiteSpace=wrap;html=1;" parent="1" vertex="1">
            <mxGeometry x="350" y="340" width="120" height="60" as="geometry" />
          </mxCell>
        </UserObject>
        <mxCell id="WcpoGV41TJ0xu-v99B74-8" value="" style="endArrow=classic;html=1;rounded=0;" parent="1" edge="1">
          <mxGeometry width="50" height="50" relative="1" as="geometry">
            <mxPoint x="409.5" y="300" as="sourcePoint" />
            <mxPoint x="409.5" y="330" as="targetPoint" />
          </mxGeometry>
        </mxCell>
      </root>
    </mxGraphModel>
  </diagram>
</mxfile>
